Patient4_TMGait_0pt4_03_right_39_EMG.mot
version=1
nRows=13
nColumns=33
inDegrees=no
endheader
time	1LAddLong	2LGlutMax	3LGlutMed	4LIliopsoas	5LSemiMemb	6LBicFemLong	7LRecFem	8LVastMed	9LVastLat	10LGasMed	11LTibAnt	12lTibPost	13LPeroneusLong	14LSol	15LExtDigLong	16LFlexDigLong	17RAddLong	18RGlutMax	19RGlutMed	20RIliopsoas	21RSemiMemb	22RBicFemLong	23RRecFem	24RVastMed	25RVastLat	26RGasMed	27RTibAnt	28RTibPost	29RPeroneusLong	30RSol	31RExtDigLong	32RFlexDigLong
51.98	-0.018463	-0.29511	-0.052338	0.022736	-0.003357	0.048981	0.094299	0.000305	-0.016174	0.00351	0.12314	0.006409	0.013123	0.045929	-0.031433	-0.007782	0.000458	0.047302	0.085297	0.080719	0.13977	-0.007019	-0.31296	-0.034943	0.047913	0.001526	-0.071869	0.002441	-0.013733	0.027924	0.007629	-0.011597
51.981	-0.013885	-0.26566	-0.006866	0.005188	-0.044556	0.062408	0.088959	0	-0.010986	-0.011749	-0.049133	0.002594	0.041046	0.052185	-0.045166	-0.00473	-0.015717	0.024261	0.08606	0.034485	0.14069	-0.061798	-0.34943	0.15427	0.045776	0.001526	-0.10971	-0.000458	-0.077362	0.14572	0.005646	-0.000916
51.982	-0.009766	-0.29098	-0.03006	-0.010071	-0.048828	0.057373	0.088806	0.001831	-0.010223	-0.004272	-0.21042	0.011749	0.045471	0.049133	-0.005493	-0.006256	0.004883	0.067902	0.004272	-0.059509	0.12268	-0.067749	-0.28763	0.093536	-0.041504	-0.003052	-0.064545	0.003357	-0.12772	0.16739	0.004578	-0.002594
51.983	-0.009308	-0.27741	-0.039215	-0.009003	-0.056915	0.063019	0.080872	0.020447	-0.002747	-0.007629	-0.24216	-0.003662	0.030823	0.067902	0.1712	-0.016785	0.005798	0.058899	0.69717	-0.12741	0.11276	-0.04364	-0.25131	0.061188	-0.076904	-0.013275	0.00885	-0.000916	-0.12497	0.045013	-0.00351	0.000763
51.984	-0.009918	-0.2626	-0.049896	-0.004578	-0.036621	0.011749	0.066223	0.009918	0.015564	-0.004272	-0.14404	0.008698	0.031281	0.06485	0.014954	-0.006409	0.009766	0.028839	0.72769	-0.15289	0.10498	-0.033417	-0.1738	0.060577	-0.038757	-0.010071	0.13336	0.001221	0.030518	0.033569	0.00351	-0.001526
51.985	-0.022888	-0.26077	0.009766	-0.006104	0.014343	0.028534	0.069427	0.003967	0.024567	-0.022583	0.028839	0.002289	0.12497	0.003662	-0.14297	-0.008087	0.010223	0.057831	0.36484	-0.091095	0.086975	-0.036011	-0.21622	0.06134	-0.010529	-0.001373	0.11948	0.000305	0.20538	-0.062103	-0.000916	-0.003357
51.986	-0.028992	-0.242	-0.02594	-0.004883	0.054016	0.056915	0.12604	-0.007324	0.015717	-0.008698	0.018158	0.00412	0.18204	0.007324	-0.089874	-0.020447	0.010223	0.045471	-0.1355	0.002594	0.081635	-0.030975	-0.16083	0.04776	-0.040741	-0.001068	-0.30838	0.001984	-0.029755	-0.067139	0.002136	-0.007629
51.987	-0.020447	-0.19379	-0.067139	0.013275	-0.02121	0.085297	0.1506	-0.00946	-0.013885	0.028076	0.009918	0.009918	0.14694	-0.029755	-0.12421	-0.011902	0.013733	0.084076	0.35431	0.059052	0.078125	-0.014801	-0.24399	0.025024	-0.021973	0.002899	-0.15869	-0.000458	0.009918	-0.14496	-0.001068	0.002289
51.988	0.001068	-0.18753	-0.12589	0.005951	-0.053406	0.034485	0.10422	-0.005493	0.001373	0.034943	0.012512	0.00473	0.18677	-0.009766	-0.13336	-0.000305	-0.000153	0.064087	0.36774	0.014496	0.077209	0.001526	-0.54336	-0.168	0.028229	0	0.52307	-0.000153	0.062256	-0.1474	0.002899	-0.011597
51.989	0.014343	-0.19012	-0.088959	0.000458	-0.017853	-0.020142	0.070038	-0.002136	-0.002594	0.032043	0.00824	0.006104	0.06073	0.011139	-0.078278	-0.002594	0.002441	0.017242	0.10483	-0.046082	0.060425	-0.014343	-0.42374	-0.17456	0.036774	-0.007782	0.8609	-0.006866	0.00824	-0.069275	0.002899	-0.012817
51.99	0.030518	-0.20599	0.015869	-0.005798	-0.031891	-0.066833	0.042725	-0.007935	-0.031128	0.015259	-0.002594	-0.009003	-0.046844	-0.032654	-0.061646	0.000153	0.002899	0.046082	0.10544	-0.081787	0.062256	-0.020752	-0.32181	-0.072021	-0.020752	-0.010223	0.027161	-0.003815	0.034943	-0.1268	0.003815	-0.01358
51.991	0.031433	-0.17303	0.026398	-0.005646	-0.024719	-0.10819	0.02594	-0.011597	-0.054321	0.017242	-0.00885	-0.005646	-0.015717	-0.03006	-0.021362	-0.001221	0.003204	0.048523	0.6073	-0.071411	0.065155	-0.024414	-0.30243	-0.002594	-0.0354	-0.012207	-0.32272	-0.000763	-0.11108	-0.09552	0.001068	-0.017395
51.992	0.026245	-0.20645	0.012817	0.003967	0.036011	-0.08667	0.021362	0.003967	-0.080109	0.029297	0.001984	0.001221	-0.01236	-0.001526	0.007935	-0.000763	0.002747	0.043488	0.077515	0.13702	0.069733	-0.055847	-0.35721	0.075378	0.01709	-0.000153	-0.25253	0.000153	-0.050812	-0.010986	-0.005951	-0.007172
